<svg width="164" height="164" viewBox="0 0 164 164" fill="none" xmlns="http://www.w3.org/2000/svg">
<path d="M81.9829 109.332C102.121 109.332 118.426 93.1711 118.426 73.2242C118.426 53.2909 104.164 32.7837 81.9829 -0.00332642C59.8015 32.7837 45.5468 53.2909 45.5468 73.2242C45.5468 93.1711 61.8447 109.332 81.9829 109.332ZM81.8599 23.3193C83.9851 26.6267 86.5408 32.3737 86.5408 38.4418C86.5408 56.2498 68.316 59.1677 68.316 48.3298C68.316 40.895 77.3772 29.9068 81.8599 23.3193ZM81.9829 136.666C65.8081 136.666 42.957 132.47 32.2011 120.566C35.4333 118.557 40.0596 116.398 46.0115 114.491C52.3188 118.516 64.4756 122.999 81.9829 122.999C99.4903 122.999 111.647 118.516 117.961 114.491C123.906 116.391 128.539 118.557 131.778 120.566C121.023 132.47 98.1578 136.666 81.9829 136.666ZM163.964 122.999C163.964 145.638 127.268 164 81.9829 164C36.7112 164 0.0017523 145.638 0.0017523 122.999L0.0222527 122.138C0.316092 115.243 4.22484 109.011 10.3066 105.751C16.3884 102.492 23.7344 102.69 29.6385 106.257L29.7957 106.353C19.4566 111.567 13.6619 117.819 13.6619 122.999C13.6619 134.145 40.2782 150.333 81.9829 150.333C123.688 150.333 150.304 134.145 150.304 122.999C150.304 117.826 144.516 111.58 134.191 106.353L134.334 106.271C140.327 102.656 147.789 102.526 153.905 105.915C160.021 109.305 163.868 115.715 163.964 122.712V122.999ZM129.804 95.4534C139.733 85.8456 150.741 94.2097 159.884 85.3604C162.741 82.6065 164.005 79.1966 164.005 75.9029C164.005 67.1629 153.885 60.4524 143.361 66.09C134.929 70.6069 130.234 82.1418 129.804 95.4534ZM131.02 60.8282C135.325 53.7419 142.972 56.9332 146.935 50.414C151.636 42.6717 141.953 34.7654 134.437 41.7424C130.234 45.6374 129.243 53.0449 131.02 60.8282ZM20.6388 66.09C10.1221 60.4524 -0.00508118 67.1629 -0.00508118 75.9029C-0.00508118 79.1966 1.25911 82.5997 4.10867 85.3604C13.2519 94.2097 24.2674 85.8456 34.1896 95.4534C33.7659 82.1418 29.0782 70.6069 20.6388 66.09ZM29.5702 41.7424C22.0534 34.7654 12.3635 42.6717 17.0649 50.414C21.0283 56.9332 28.675 53.7419 32.9869 60.8282C34.7568 53.0449 33.7728 45.6374 29.5702 41.7424Z" fill="#007BFF"/>
</svg>
